<svg width="10" height="11" viewBox="0 0 10 11" fill="none" xmlns="http://www.w3.org/2000/svg">
<path d="M6.86719 5.13L9.60156 7.89172C9.95703 8.21985 9.95703 8.76672 9.60156 9.09485L9 9.69641C8.67188 10.0519 8.125 10.0519 7.79688 9.69641L5.0625 6.96204L2.30078 9.69641C1.97266 10.0519 1.42578 10.0519 1.09766 9.69641L0.496094 9.09485C0.140625 8.76672 0.140625 8.21985 0.496094 7.89172L3.23047 5.13L0.496094 2.39563C0.140625 2.0675 0.140625 1.52063 0.496094 1.1925L1.09766 0.590942C1.42578 0.235474 1.97266 0.235474 2.30078 0.590942L5.0625 3.32532L7.79688 0.590942C8.125 0.235474 8.67188 0.235474 9 0.590942L9.60156 1.1925C9.95703 1.52063 9.95703 2.0675 9.60156 2.39563L6.86719 5.13Z" fill="black"/>
</svg>
