<svg width="51" height="51" viewBox="0 0 51 51" fill="none" xmlns="http://www.w3.org/2000/svg">
<rect x="0.97998" y="0.130005" width="50" height="50" rx="25" fill="#5D5FEF"/>
<path d="M40.0857 32.4327C40.5252 33.4581 39.7928 34.63 38.7185 34.63H29.0994L28.6111 29.8937C28.5623 29.5031 28.2205 29.1613 27.8299 29.1613H24.4607C24.0701 29.1613 23.7283 29.5031 23.6795 29.8937L23.1912 34.63H13.572C12.4978 34.63 11.7654 33.4581 12.2049 32.4327L19.0408 16.8077C19.2849 16.2706 19.822 15.88 20.408 15.88H25.1443L25.0467 17.0519C24.9978 17.2472 25.1931 17.4425 25.4373 17.4425H26.8533C27.0974 17.4425 27.2928 17.2472 27.2439 17.0519L27.1463 15.88H31.8826C32.4685 15.88 33.0056 16.2706 33.2498 16.8077L40.0857 32.4327ZM24.8025 19.3956L24.5584 21.4952C24.5584 21.837 24.8025 22.13 25.1443 22.13H27.1463C27.4881 22.13 27.7322 21.837 27.7322 21.4952L27.4881 19.3956C27.4881 19.2003 27.2928 19.005 27.0974 19.005H25.1931V19.0538C24.9978 19.0538 24.8025 19.2003 24.8025 19.3956ZM27.4881 27.5988C27.9763 27.5988 28.3181 27.2081 28.2693 26.7687L28.0252 24.4249C27.9763 24.0343 27.6345 23.6925 27.2439 23.6925H25.0467C24.656 23.6925 24.3142 24.0343 24.2654 24.4249L24.0213 26.7687C23.9724 27.2081 24.3142 27.5988 24.8025 27.5988H27.4881Z" fill="white"/>
</svg>
