<svg width="50" height="51" viewBox="0 0 50 51" fill="none" xmlns="http://www.w3.org/2000/svg">
<rect y="0.130005" width="50" height="50" rx="25" fill="#5D5FEF"/>
<path d="M25.175 13.1456C31.8645 13.1456 37.2844 18.5656 37.2844 25.255C37.2844 31.9445 31.8645 37.3644 25.175 37.3644C18.4855 37.3644 13.0656 31.9445 13.0656 25.255C13.0656 18.5656 18.4855 13.1456 25.175 13.1456ZM29.6672 28.4288C29.7648 28.3312 29.8625 28.1359 29.8625 27.9406C29.8625 27.6964 29.716 27.5011 29.5695 27.3546L26.7375 25.255V18.2238C26.7375 17.8331 26.3469 17.4425 25.9563 17.4425H24.3938C23.9543 17.4425 23.6125 17.8331 23.6125 18.2238V25.8409C23.6125 26.4757 23.8566 27.0128 24.3449 27.3546L27.6164 29.796C27.7141 29.8937 27.9094 29.9913 28.0559 29.9913C28.3488 29.9913 28.5441 29.8448 28.6906 29.6495L29.6672 28.4288Z" fill="white"/>
</svg>
