<svg width="26" height="23" viewBox="0 0 26 23" fill="none" xmlns="http://www.w3.org/2000/svg">
<path d="M7.95352 9.67188V13.5781C7.95352 14.2617 7.41641 14.75 6.78164 14.75H1.85C1.16641 14.75 0.678125 14.2617 0.678125 13.5781V9.67188C0.678125 9.03711 1.16641 8.5 1.85 8.5H6.78164C7.41641 8.5 7.95352 9.03711 7.95352 9.67188ZM0.678125 17.4844C0.678125 16.8496 1.16641 16.3125 1.85 16.3125H6.78164C7.41641 16.3125 7.95352 16.8496 7.95352 17.4844V21.3906C7.95352 22.0742 7.41641 22.5625 6.78164 22.5625H1.85C1.16641 22.5625 0.678125 22.0742 0.678125 21.3906V17.4844ZM6.78164 0.6875C7.41641 0.6875 7.95352 1.22461 7.95352 1.85938V5.76562C7.95352 6.44922 7.41641 6.9375 6.78164 6.9375H1.85C1.16641 6.9375 0.678125 6.44922 0.678125 5.76562V1.85938C0.678125 1.22461 1.16641 0.6875 1.85 0.6875H6.78164ZM10.6879 22.5625C10.0531 22.5625 9.51602 22.0742 9.51602 21.3906V17.4844C9.51602 16.8496 10.0531 16.3125 10.6879 16.3125H24.5063C25.141 16.3125 25.6781 16.8496 25.6781 17.4844V21.3906C25.6781 22.0742 25.141 22.5625 24.5063 22.5625H10.6879ZM9.51602 1.85938C9.51602 1.22461 10.0531 0.6875 10.6879 0.6875H24.5063C25.141 0.6875 25.6781 1.22461 25.6781 1.85938V5.76562C25.6781 6.44922 25.141 6.9375 24.5063 6.9375H10.6879C10.0531 6.9375 9.51602 6.44922 9.51602 5.76562V1.85938ZM10.6879 14.75C10.0531 14.75 9.51602 14.2617 9.51602 13.5781V9.67188C9.51602 9.03711 10.0531 8.5 10.6879 8.5H24.5063C25.141 8.5 25.6781 9.03711 25.6781 9.67188V13.5781C25.6781 14.2617 25.141 14.75 24.5063 14.75H10.6879Z" fill="#5D5FEF"/>
</svg>
