<svg width="26" height="23" viewBox="0 0 26 23" fill="none" xmlns="http://www.w3.org/2000/svg">
<path d="M15.3813 0.6875H24.7563C25.391 0.6875 25.9281 1.22461 25.9281 1.85938V9.67188C25.9281 10.3555 25.391 10.8438 24.7563 10.8438H15.3813C14.6977 10.8438 14.2094 10.3555 14.2094 9.67188V1.85938C14.2094 1.22461 14.6977 0.6875 15.3813 0.6875ZM11.475 0.6875C12.1098 0.6875 12.6469 1.22461 12.6469 1.85938V9.67188C12.6469 10.3555 12.1098 10.8438 11.475 10.8438H2.1C1.41641 10.8438 0.928125 10.3555 0.928125 9.67188V1.85938C0.928125 1.22461 1.41641 0.6875 2.1 0.6875H11.475ZM0.928125 13.5781C0.928125 12.9434 1.41641 12.4062 2.1 12.4062H11.475C12.1098 12.4062 12.6469 12.9434 12.6469 13.5781V21.3906C12.6469 22.0742 12.1098 22.5625 11.475 22.5625H2.1C1.41641 22.5625 0.928125 22.0742 0.928125 21.3906V13.5781ZM15.3813 22.5625C14.6977 22.5625 14.2094 22.0742 14.2094 21.3906V13.5781C14.2094 12.9434 14.6977 12.4062 15.3813 12.4062H24.7563C25.391 12.4062 25.9281 12.9434 25.9281 13.5781V21.3906C25.9281 22.0742 25.391 22.5625 24.7563 22.5625H15.3813Z" fill="white"/>
</svg>
