<svg width="11" height="15" viewBox="0 0 11 15" fill="none" xmlns="http://www.w3.org/2000/svg">
<path d="M4.70312 13.8566C0.710938 8.11438 0 7.51282 0 5.38C0 2.48157 2.32422 0.130005 5.25 0.130005C8.14844 0.130005 10.5 2.48157 10.5 5.38C10.5 7.51282 9.76172 8.11438 5.76953 13.8566C5.52344 14.2394 4.94922 14.2394 4.70312 13.8566ZM5.25 7.5675C6.45312 7.5675 7.4375 6.61047 7.4375 5.38C7.4375 4.17688 6.45312 3.1925 5.25 3.1925C4.01953 3.1925 3.0625 4.17688 3.0625 5.38C3.0625 6.61047 4.01953 7.5675 5.25 7.5675Z" fill="#6E6E6E"/>
</svg>
