<svg width="16" height="16" viewBox="0 0 16 16" fill="none" xmlns="http://www.w3.org/2000/svg">
<path d="M13.1275 10.22C14.6509 10.22 15.94 11.509 15.94 13.0325C15.94 14.5852 14.6509 15.845 13.1275 15.845H4.98297C5.36383 15.3762 5.89117 14.7024 6.35992 13.97H13.1275C13.6255 13.97 14.065 13.5598 14.065 13.0325C14.065 12.5344 13.6255 12.095 13.1275 12.095H10.315C8.76227 12.095 7.5025 10.8352 7.5025 9.28247C7.5025 7.75903 8.76227 6.46997 10.315 6.46997H11.6334C10.9595 5.53247 10.315 4.41919 10.315 3.65747C10.315 2.10474 11.5748 0.844971 13.1275 0.844971C14.6802 0.844971 15.94 2.10474 15.94 3.65747C15.94 5.21021 13.1275 8.34497 13.1275 8.34497H10.315C9.78766 8.34497 9.3775 8.78442 9.3775 9.28247C9.3775 9.80981 9.78766 10.22 10.315 10.22H13.1275ZM13.1275 2.71997C12.6002 2.71997 12.19 3.15942 12.19 3.65747C12.19 4.18481 12.6002 4.59497 13.1275 4.59497C13.6255 4.59497 14.065 4.18481 14.065 3.65747C14.065 3.15942 13.6255 2.71997 13.1275 2.71997ZM3.7525 8.34497C5.30524 8.34497 6.565 9.60474 6.565 11.1575C6.565 12.7102 3.7525 15.845 3.7525 15.845C3.7525 15.845 0.940002 12.7102 0.940002 11.1575C0.940002 9.60474 2.19977 8.34497 3.7525 8.34497ZM3.7525 12.095C4.25055 12.095 4.69 11.6848 4.69 11.1575C4.69 10.6594 4.25055 10.22 3.7525 10.22C3.22516 10.22 2.815 10.6594 2.815 11.1575C2.815 11.6848 3.22516 12.095 3.7525 12.095Z" fill="#5D5FEF"/>
</svg>
