<svg width="16" height="16" viewBox="0 0 16 16" fill="none" xmlns="http://www.w3.org/2000/svg">
<path d="M13.0675 10.22C14.5909 10.22 15.88 11.509 15.88 13.0325C15.88 14.5852 14.5909 15.845 13.0675 15.845H4.92297C5.30383 15.3762 5.83118 14.7024 6.29993 13.97H13.0675C13.5656 13.97 14.005 13.5598 14.005 13.0325C14.005 12.5344 13.5656 12.095 13.0675 12.095H10.255C8.70227 12.095 7.4425 10.8352 7.4425 9.28247C7.4425 7.75903 8.70227 6.46997 10.255 6.46997H11.5734C10.8995 5.53247 10.255 4.41919 10.255 3.65747C10.255 2.10474 11.5148 0.844971 13.0675 0.844971C14.6202 0.844971 15.88 2.10474 15.88 3.65747C15.88 5.21021 13.0675 8.34497 13.0675 8.34497H10.255C9.72766 8.34497 9.3175 8.78442 9.3175 9.28247C9.3175 9.80981 9.72766 10.22 10.255 10.22H13.0675ZM13.0675 2.71997C12.5402 2.71997 12.13 3.15942 12.13 3.65747C12.13 4.18481 12.5402 4.59497 13.0675 4.59497C13.5656 4.59497 14.005 4.18481 14.005 3.65747C14.005 3.15942 13.5656 2.71997 13.0675 2.71997ZM3.6925 8.34497C5.24524 8.34497 6.505 9.60474 6.505 11.1575C6.505 12.7102 3.6925 15.845 3.6925 15.845C3.6925 15.845 0.880005 12.7102 0.880005 11.1575C0.880005 9.60474 2.13977 8.34497 3.6925 8.34497ZM3.6925 12.095C4.19055 12.095 4.63 11.6848 4.63 11.1575C4.63 10.6594 4.19055 10.22 3.6925 10.22C3.16516 10.22 2.755 10.6594 2.755 11.1575C2.755 11.6848 3.16516 12.095 3.6925 12.095Z" fill="#14B9D5"/>
</svg>
