<svg width="16" height="16" viewBox="0 0 16 16" fill="none" xmlns="http://www.w3.org/2000/svg">
<path d="M13.0176 10.22C14.541 10.22 15.8301 11.509 15.8301 13.0325C15.8301 14.5852 14.541 15.845 13.0176 15.845H4.87305C5.25391 15.3762 5.78125 14.7024 6.25 13.97H13.0176C13.5156 13.97 13.9551 13.5598 13.9551 13.0325C13.9551 12.5344 13.5156 12.095 13.0176 12.095H10.2051C8.65234 12.095 7.39258 10.8352 7.39258 9.28247C7.39258 7.75903 8.65234 6.46997 10.2051 6.46997H11.5234C10.8496 5.53247 10.2051 4.41919 10.2051 3.65747C10.2051 2.10474 11.4648 0.844971 13.0176 0.844971C14.5703 0.844971 15.8301 2.10474 15.8301 3.65747C15.8301 5.21021 13.0176 8.34497 13.0176 8.34497H10.2051C9.67773 8.34497 9.26758 8.78442 9.26758 9.28247C9.26758 9.80981 9.67773 10.22 10.2051 10.22H13.0176ZM13.0176 2.71997C12.4902 2.71997 12.0801 3.15942 12.0801 3.65747C12.0801 4.18481 12.4902 4.59497 13.0176 4.59497C13.5156 4.59497 13.9551 4.18481 13.9551 3.65747C13.9551 3.15942 13.5156 2.71997 13.0176 2.71997ZM3.64258 8.34497C5.19531 8.34497 6.45508 9.60474 6.45508 11.1575C6.45508 12.7102 3.64258 15.845 3.64258 15.845C3.64258 15.845 0.830078 12.7102 0.830078 11.1575C0.830078 9.60474 2.08984 8.34497 3.64258 8.34497ZM3.64258 12.095C4.14062 12.095 4.58008 11.6848 4.58008 11.1575C4.58008 10.6594 4.14062 10.22 3.64258 10.22C3.11523 10.22 2.70508 10.6594 2.70508 11.1575C2.70508 11.6848 3.11523 12.095 3.64258 12.095Z" fill="#BA71DA"/>
</svg>
