<svg width="16" height="16" viewBox="0 0 16 16" fill="none" xmlns="http://www.w3.org/2000/svg">
<path d="M13.0176 10.34C14.541 10.34 15.8301 11.629 15.8301 13.1525C15.8301 14.7052 14.541 15.965 13.0176 15.965H4.87305C5.25391 15.4962 5.78125 14.8224 6.25 14.09H13.0176C13.5156 14.09 13.9551 13.6798 13.9551 13.1525C13.9551 12.6544 13.5156 12.215 13.0176 12.215H10.2051C8.65234 12.215 7.39258 10.9552 7.39258 9.40247C7.39258 7.87903 8.65234 6.58997 10.2051 6.58997H11.5234C10.8496 5.65247 10.2051 4.53918 10.2051 3.77747C10.2051 2.22473 11.4648 0.964966 13.0176 0.964966C14.5703 0.964966 15.8301 2.22473 15.8301 3.77747C15.8301 5.3302 13.0176 8.46497 13.0176 8.46497H10.2051C9.67773 8.46497 9.26758 8.90442 9.26758 9.40247C9.26758 9.92981 9.67773 10.34 10.2051 10.34H13.0176ZM13.0176 2.83997C12.4902 2.83997 12.0801 3.27942 12.0801 3.77747C12.0801 4.30481 12.4902 4.71497 13.0176 4.71497C13.5156 4.71497 13.9551 4.30481 13.9551 3.77747C13.9551 3.27942 13.5156 2.83997 13.0176 2.83997ZM3.64258 8.46497C5.19531 8.46497 6.45508 9.72473 6.45508 11.2775C6.45508 12.8302 3.64258 15.965 3.64258 15.965C3.64258 15.965 0.830078 12.8302 0.830078 11.2775C0.830078 9.72473 2.08984 8.46497 3.64258 8.46497ZM3.64258 12.215C4.14062 12.215 4.58008 11.8048 4.58008 11.2775C4.58008 10.7794 4.14062 10.34 3.64258 10.34C3.11523 10.34 2.70508 10.7794 2.70508 11.2775C2.70508 11.8048 3.11523 12.215 3.64258 12.215Z" fill="#F76570"/>
</svg>
