<svg width="16" height="16" viewBox="0 0 16 16" fill="none" xmlns="http://www.w3.org/2000/svg">
<path d="M12.4673 9.89001C13.9907 9.89001 15.2798 11.1791 15.2798 12.7025C15.2798 14.2552 13.9907 15.515 12.4673 15.515H4.32275C4.70361 15.0463 5.23096 14.3724 5.69971 13.64H12.4673C12.9653 13.64 13.4048 13.2299 13.4048 12.7025C13.4048 12.2045 12.9653 11.765 12.4673 11.765H9.65479C8.10205 11.765 6.84229 10.5052 6.84229 8.95251C6.84229 7.42908 8.10205 6.14001 9.65479 6.14001H10.9731C10.2993 5.20251 9.65479 4.08923 9.65479 3.32751C9.65479 1.77478 10.9146 0.515015 12.4673 0.515015C14.02 0.515015 15.2798 1.77478 15.2798 3.32751C15.2798 4.88025 12.4673 8.01501 12.4673 8.01501H9.65479C9.12744 8.01501 8.71729 8.45447 8.71729 8.95251C8.71729 9.47986 9.12744 9.89001 9.65479 9.89001H12.4673ZM12.4673 2.39001C11.9399 2.39001 11.5298 2.82947 11.5298 3.32751C11.5298 3.85486 11.9399 4.26501 12.4673 4.26501C12.9653 4.26501 13.4048 3.85486 13.4048 3.32751C13.4048 2.82947 12.9653 2.39001 12.4673 2.39001ZM3.09229 8.01501C4.64502 8.01501 5.90479 9.27478 5.90479 10.8275C5.90479 12.3802 3.09229 15.515 3.09229 15.515C3.09229 15.515 0.279785 12.3802 0.279785 10.8275C0.279785 9.27478 1.53955 8.01501 3.09229 8.01501ZM3.09229 11.765C3.59033 11.765 4.02979 11.3549 4.02979 10.8275C4.02979 10.3295 3.59033 9.89001 3.09229 9.89001C2.56494 9.89001 2.15479 10.3295 2.15479 10.8275C2.15479 11.3549 2.56494 11.765 3.09229 11.765Z" fill="#FFD205"/>
</svg>
