<svg width="51" height="50" viewBox="0 0 51 50" fill="none" xmlns="http://www.w3.org/2000/svg">
<rect x="0.660156" width="50" height="50" rx="25" fill="#5D5FEF"/>
<path d="M37.8469 21.9512C38.0422 21.8047 38.3352 21.9512 38.3352 22.1953V32.1562C38.3352 33.4746 37.2609 34.5 35.9914 34.5H15.6789C14.3605 34.5 13.3352 33.4746 13.3352 32.1562V22.1953C13.3352 21.9512 13.5793 21.8047 13.7746 21.9512C14.8977 22.8301 16.3137 23.9043 21.2941 27.5176C22.3195 28.25 24.0773 29.8613 25.8352 29.8613C27.5441 29.8613 29.3508 28.25 30.3273 27.5176C35.3078 23.9043 36.7238 22.8301 37.8469 21.9512ZM25.8352 28.25C24.6633 28.2988 23.052 26.834 22.2219 26.248C15.7277 21.5605 15.2395 21.1211 13.7746 19.9492C13.4816 19.7539 13.3352 19.4121 13.3352 19.0215V18.0938C13.3352 16.8242 14.3605 15.75 15.6789 15.75H35.9914C37.2609 15.75 38.3352 16.8242 38.3352 18.0938V19.0215C38.3352 19.4121 38.1398 19.7539 37.8469 19.9492C36.382 21.1211 35.8938 21.5605 29.3996 26.248C28.5695 26.834 26.9582 28.2988 25.8352 28.25Z" fill="white"/>
</svg>
