<svg width="16" height="12" viewBox="0 0 16 12" fill="none" xmlns="http://www.w3.org/2000/svg">
<path d="M15.647 4.44067C15.7642 4.35278 15.94 4.44067 15.94 4.58716V10.5637C15.94 11.3547 15.2955 11.97 14.5338 11.97H2.34625C1.55524 11.97 0.940002 11.3547 0.940002 10.5637V4.58716C0.940002 4.44067 1.08649 4.35278 1.20367 4.44067C1.8775 4.96802 2.72711 5.61255 5.71539 7.78052C6.33063 8.21997 7.38531 9.18677 8.44 9.18677C9.46539 9.18677 10.5494 8.21997 11.1353 7.78052C14.1236 5.61255 14.9732 4.96802 15.647 4.44067ZM8.44 8.21997C7.73688 8.24927 6.77008 7.37036 6.27203 7.0188C2.37555 4.2063 2.08258 3.94263 1.20367 3.2395C1.02789 3.12231 0.940002 2.91724 0.940002 2.68286V2.12622C0.940002 1.3645 1.55524 0.719971 2.34625 0.719971H14.5338C15.2955 0.719971 15.94 1.3645 15.94 2.12622V2.68286C15.94 2.91724 15.8228 3.12231 15.647 3.2395C14.7681 3.94263 14.4752 4.2063 10.5787 7.0188C10.0806 7.37036 9.11383 8.24927 8.44 8.21997Z" fill="#5D5FEF"/>
</svg>
