<svg width="16" height="12" viewBox="0 0 16 12" fill="none" xmlns="http://www.w3.org/2000/svg">
<path d="M14.9868 4.11072C15.104 4.02283 15.2798 4.11072 15.2798 4.2572V10.2338C15.2798 11.0248 14.6353 11.64 13.8735 11.64H1.68604C0.89502 11.64 0.279785 11.0248 0.279785 10.2338V4.2572C0.279785 4.11072 0.42627 4.02283 0.543457 4.11072C1.21729 4.63806 2.06689 5.28259 5.05518 7.45056C5.67041 7.89001 6.7251 8.85681 7.77979 8.85681C8.80518 8.85681 9.88916 7.89001 10.4751 7.45056C13.4634 5.28259 14.313 4.63806 14.9868 4.11072ZM7.77979 7.89001C7.07666 7.91931 6.10986 7.04041 5.61182 6.68884C1.71533 3.87634 1.42236 3.61267 0.543457 2.90955C0.367676 2.79236 0.279785 2.58728 0.279785 2.35291V1.79626C0.279785 1.03455 0.89502 0.390015 1.68604 0.390015H13.8735C14.6353 0.390015 15.2798 1.03455 15.2798 1.79626V2.35291C15.2798 2.58728 15.1626 2.79236 14.9868 2.90955C14.1079 3.61267 13.8149 3.87634 9.91846 6.68884C9.42041 7.04041 8.45361 7.91931 7.77979 7.89001Z" fill="#FFD205"/>
</svg>
