<svg width="16" height="12" viewBox="0 0 16 12" fill="none" xmlns="http://www.w3.org/2000/svg">
<path d="M15.5371 4.44067C15.6543 4.35278 15.8301 4.44067 15.8301 4.58716V10.5637C15.8301 11.3547 15.1855 11.97 14.4238 11.97H2.23633C1.44531 11.97 0.830078 11.3547 0.830078 10.5637V4.58716C0.830078 4.44067 0.976562 4.35278 1.09375 4.44067C1.76758 4.96802 2.61719 5.61255 5.60547 7.78052C6.2207 8.21997 7.27539 9.18677 8.33008 9.18677C9.35547 9.18677 10.4395 8.21997 11.0254 7.78052C14.0137 5.61255 14.8633 4.96802 15.5371 4.44067ZM8.33008 8.21997C7.62695 8.24927 6.66016 7.37036 6.16211 7.0188C2.26562 4.2063 1.97266 3.94263 1.09375 3.2395C0.917969 3.12231 0.830078 2.91724 0.830078 2.68286V2.12622C0.830078 1.3645 1.44531 0.719971 2.23633 0.719971H14.4238C15.1855 0.719971 15.8301 1.3645 15.8301 2.12622V2.68286C15.8301 2.91724 15.7129 3.12231 15.5371 3.2395C14.6582 3.94263 14.3652 4.2063 10.4688 7.0188C9.9707 7.37036 9.00391 8.24927 8.33008 8.21997Z" fill="#BA71DA"/>
</svg>
