<svg width="16" height="12" viewBox="0 0 16 12" fill="none" xmlns="http://www.w3.org/2000/svg">
<path d="M15.587 4.44067C15.7042 4.35278 15.88 4.44067 15.88 4.58716V10.5637C15.88 11.3547 15.2355 11.97 14.4738 11.97H2.28625C1.49524 11.97 0.880005 11.3547 0.880005 10.5637V4.58716C0.880005 4.44067 1.02649 4.35278 1.14368 4.44067C1.8175 4.96802 2.66711 5.61255 5.6554 7.78052C6.27063 8.21997 7.32532 9.18677 8.38 9.18677C9.4054 9.18677 10.4894 8.21997 11.0753 7.78052C14.0636 5.61255 14.9132 4.96802 15.587 4.44067ZM8.38 8.21997C7.67688 8.24927 6.71008 7.37036 6.21204 7.0188C2.31555 4.2063 2.02258 3.94263 1.14368 3.2395C0.967896 3.12231 0.880005 2.91724 0.880005 2.68286V2.12622C0.880005 1.3645 1.49524 0.719971 2.28625 0.719971H14.4738C15.2355 0.719971 15.88 1.3645 15.88 2.12622V2.68286C15.88 2.91724 15.7628 3.12231 15.587 3.2395C14.7081 3.94263 14.4152 4.2063 10.5187 7.0188C10.0206 7.37036 9.05383 8.24927 8.38 8.21997Z" fill="#14B9D5"/>
</svg>
