<svg width="16" height="13" viewBox="0 0 16 13" fill="none" xmlns="http://www.w3.org/2000/svg">
<path d="M15.5371 4.56067C15.6543 4.47278 15.8301 4.56067 15.8301 4.70715V10.6837C15.8301 11.4747 15.1855 12.09 14.4238 12.09H2.23633C1.44531 12.09 0.830078 11.4747 0.830078 10.6837V4.70715C0.830078 4.56067 0.976562 4.47278 1.09375 4.56067C1.76758 5.08801 2.61719 5.73254 5.60547 7.90051C6.2207 8.33997 7.27539 9.30676 8.33008 9.30676C9.35547 9.30676 10.4395 8.33997 11.0254 7.90051C14.0137 5.73254 14.8633 5.08801 15.5371 4.56067ZM8.33008 8.33997C7.62695 8.36926 6.66016 7.49036 6.16211 7.13879C2.26562 4.32629 1.97266 4.06262 1.09375 3.3595C0.917969 3.24231 0.830078 3.03723 0.830078 2.80286V2.24622C0.830078 1.4845 1.44531 0.839966 2.23633 0.839966H14.4238C15.1855 0.839966 15.8301 1.4845 15.8301 2.24622V2.80286C15.8301 3.03723 15.7129 3.24231 15.5371 3.3595C14.6582 4.06262 14.3652 4.32629 10.4688 7.13879C9.9707 7.49036 9.00391 8.36926 8.33008 8.33997Z" fill="#F76570"/>
</svg>
