<svg width="51" height="51" viewBox="0 0 51 51" fill="none" xmlns="http://www.w3.org/2000/svg">
<rect x="0.969727" y="0.130005" width="50" height="50" rx="25" fill="#5D5FEF"/>
<path d="M22.6047 16.2706C22.6047 14.3663 24.1672 12.755 26.1203 12.755C28.0246 12.755 29.6359 14.3663 29.6359 16.2706C29.6359 18.2238 28.0246 19.7863 26.1203 19.7863C24.1672 19.7863 22.6047 18.2238 22.6047 16.2706ZM35.007 16.3683C35.6418 16.9542 35.6418 17.9796 35.007 18.5656L30.4172 23.2042V36.1925C30.4172 37.0714 29.6848 37.755 28.8547 37.755H28.0734C27.1945 37.755 26.5109 37.0714 26.5109 36.1925V30.7238H25.7297V36.1925C25.7297 37.0714 24.9973 37.755 24.1672 37.755H23.3859C22.507 37.755 21.8234 37.0714 21.8234 36.1925V23.2042L17.1848 18.5656C16.55 17.9796 16.55 16.9542 17.1848 16.3683C17.7707 15.7335 18.7961 15.7335 19.382 16.3683L23.6301 20.5675H28.5617L32.8098 16.3683C33.3957 15.7335 34.4211 15.7335 35.007 16.3683Z" fill="white"/>
</svg>
