<svg width="50" height="50" viewBox="0 0 50 50" fill="none" xmlns="http://www.w3.org/2000/svg">
<rect width="50" height="50" rx="25" fill="#5D5FEF"/>
<path d="M34.5647 22C36.2737 22 39.2522 23.416 39.2522 25.125C39.2522 26.8828 36.2737 28.25 34.5647 28.25H28.9495L23.8225 37.2344C23.6761 37.4785 23.4319 37.625 23.1389 37.625H19.9651C19.428 37.625 19.0374 37.1367 19.1839 36.6484L21.5764 28.25H16.596L14.4475 31.082C14.3011 31.2773 14.1057 31.375 13.8616 31.375H11.9085C11.3714 31.375 10.9807 30.9355 11.1272 30.4473L12.6897 25.125L11.1272 19.8516C10.9807 19.3633 11.3714 18.875 11.9085 18.875H13.8616C14.1057 18.875 14.3011 19.0215 14.4475 19.2168L16.596 22H21.5764L19.1839 13.6504C19.0374 13.1621 19.428 12.625 19.9651 12.625H23.1389C23.4319 12.625 23.6761 12.8203 23.8225 13.0645L28.9495 22H34.5647Z" fill="white"/>
</svg>
