<svg width="51" height="50" viewBox="0 0 51 50" fill="none" xmlns="http://www.w3.org/2000/svg">
<rect x="0.330078" width="50" height="50" rx="25" fill="#5D5FEF"/>
<path d="M25.4756 29.8125C22.8389 29.8125 20.7881 27.7617 20.7881 25.125V17.3125C20.7881 14.7246 22.8389 12.625 25.4756 12.625C28.0635 12.625 30.1631 14.7246 30.1631 17.3125V25.125C30.1631 27.7617 28.0635 29.8125 25.4756 29.8125ZM33.2881 22C33.6787 22 34.0693 22.3906 34.0693 22.7812V25.125C34.0693 29.4707 30.7978 33.084 26.6474 33.6699V35.2812H29.3818C29.7724 35.2812 30.1631 35.6719 30.1631 36.0625V36.8438C30.1631 37.2832 29.7724 37.625 29.3818 37.625H21.5693C21.1299 37.625 20.7881 37.2832 20.7881 36.8438V36.0625C20.7881 35.6719 21.1299 35.2812 21.5693 35.2812H24.3037V33.6211C19.958 33.0352 16.8818 29.1289 16.8818 24.7832V22.7812C16.8818 22.3906 17.2236 22 17.6631 22H18.4443C18.8349 22 19.2256 22.3906 19.2256 22.7812V24.8809C19.2256 28.1523 21.5693 31.0332 24.8408 31.375C28.5517 31.7168 31.7256 28.7871 31.7256 25.125V22.7812C31.7256 22.3906 32.0674 22 32.5068 22H33.2881Z" fill="white"/>
</svg>
