<svg width="15" height="15" viewBox="0 0 15 15" fill="none" xmlns="http://www.w3.org/2000/svg">
<path d="M7.44 0.0793457C11.4537 0.0793457 14.7056 3.3313 14.7056 7.34497C14.7056 11.3586 11.4537 14.6106 7.44 14.6106C3.42633 14.6106 0.174377 11.3586 0.174377 7.34497C0.174377 3.3313 3.42633 0.0793457 7.44 0.0793457ZM10.1353 9.24927C10.1939 9.19067 10.2525 9.07349 10.2525 8.9563C10.2525 8.80981 10.1646 8.69263 10.0767 8.60474L8.3775 7.34497V3.12622C8.3775 2.89185 8.14313 2.65747 7.90875 2.65747H6.97125C6.70758 2.65747 6.5025 2.89185 6.5025 3.12622V7.69653C6.5025 8.07739 6.64899 8.39966 6.94196 8.60474L8.90485 10.0696C8.96344 10.1282 9.08063 10.1868 9.16852 10.1868C9.3443 10.1868 9.46149 10.0989 9.54938 9.98169L10.1353 9.24927Z" fill="#14B9D5"/>
</svg>
