<svg width="15" height="16" viewBox="0 0 15 16" fill="none" xmlns="http://www.w3.org/2000/svg">
<path d="M7.5 0.74939C11.5137 0.74939 14.7656 4.00134 14.7656 8.01501C14.7656 12.0287 11.5137 15.2806 7.5 15.2806C3.48633 15.2806 0.234375 12.0287 0.234375 8.01501C0.234375 4.00134 3.48633 0.74939 7.5 0.74939ZM10.1953 9.91931C10.2539 9.86072 10.3125 9.74353 10.3125 9.62634C10.3125 9.47986 10.2246 9.36267 10.1367 9.27478L8.4375 8.01501V3.79626C8.4375 3.56189 8.20312 3.32751 7.96875 3.32751H7.03125C6.76758 3.32751 6.5625 3.56189 6.5625 3.79626V8.36658C6.5625 8.74744 6.70898 9.0697 7.00195 9.27478L8.96484 10.7396C9.02344 10.7982 9.14062 10.8568 9.22852 10.8568C9.4043 10.8568 9.52148 10.7689 9.60938 10.6517L10.1953 9.91931Z" fill="#FFD205"/>
</svg>
