<svg width="15" height="15" viewBox="0 0 15 15" fill="none" xmlns="http://www.w3.org/2000/svg">
<path d="M7.39014 0.199341C11.4038 0.199341 14.6558 3.45129 14.6558 7.46497C14.6558 11.4786 11.4038 14.7306 7.39014 14.7306C3.37646 14.7306 0.124512 11.4786 0.124512 7.46497C0.124512 3.45129 3.37646 0.199341 7.39014 0.199341ZM10.0854 9.36926C10.144 9.31067 10.2026 9.19348 10.2026 9.07629C10.2026 8.92981 10.1147 8.81262 10.0269 8.72473L8.32764 7.46497V3.24622C8.32764 3.01184 8.09326 2.77747 7.85889 2.77747H6.92139C6.65771 2.77747 6.45264 3.01184 6.45264 3.24622V7.81653C6.45264 8.19739 6.59912 8.51965 6.89209 8.72473L8.85498 10.1896C8.91357 10.2482 9.03076 10.3068 9.11865 10.3068C9.29443 10.3068 9.41162 10.2189 9.49951 10.1017L10.0854 9.36926Z" fill="#F76570"/>
</svg>
