<svg width="15" height="15" viewBox="0 0 15 15" fill="none" xmlns="http://www.w3.org/2000/svg">
<path d="M7.39001 0.0793457C11.4037 0.0793457 14.6556 3.3313 14.6556 7.34497C14.6556 11.3586 11.4037 14.6106 7.39001 14.6106C3.37634 14.6106 0.12439 11.3586 0.12439 7.34497C0.12439 3.3313 3.37634 0.0793457 7.39001 0.0793457ZM10.0853 9.24927C10.1439 9.19067 10.2025 9.07349 10.2025 8.9563C10.2025 8.80981 10.1146 8.69263 10.0267 8.60474L8.32751 7.34497V3.12622C8.32751 2.89185 8.09314 2.65747 7.85876 2.65747H6.92126C6.65759 2.65747 6.45251 2.89185 6.45251 3.12622V7.69653C6.45251 8.07739 6.599 8.39966 6.89197 8.60474L8.85486 10.0696C8.91345 10.1282 9.03064 10.1868 9.11853 10.1868C9.29431 10.1868 9.4115 10.0989 9.49939 9.98169L10.0853 9.24927Z" fill="#BA71DA"/>
</svg>
