<svg width="15" height="15" viewBox="0 0 15 15" fill="none" xmlns="http://www.w3.org/2000/svg">
<path d="M7.5 0.0793457C11.5137 0.0793457 14.7656 3.3313 14.7656 7.34497C14.7656 11.3586 11.5137 14.6106 7.5 14.6106C3.48633 14.6106 0.234375 11.3586 0.234375 7.34497C0.234375 3.3313 3.48633 0.0793457 7.5 0.0793457ZM10.1953 9.24927C10.2539 9.19067 10.3125 9.07349 10.3125 8.9563C10.3125 8.80981 10.2246 8.69263 10.1367 8.60474L8.4375 7.34497V3.12622C8.4375 2.89185 8.20312 2.65747 7.96875 2.65747H7.03125C6.76758 2.65747 6.5625 2.89185 6.5625 3.12622V7.69653C6.5625 8.07739 6.70898 8.39966 7.00195 8.60474L8.96484 10.0696C9.02344 10.1282 9.14062 10.1868 9.22852 10.1868C9.4043 10.1868 9.52148 10.0989 9.60938 9.98169L10.1953 9.24927Z" fill="#5D5FEF"/>
</svg>
